<?xml version="1.0" encoding="utf-8"?>
<!-- Generator: Adobe Illustrator 18.1.1, SVG Export Plug-In . SVG Version: 6.00 Build 0)  -->
<svg version="1.1" id="Layer_1" xmlns="http://www.w3.org/2000/svg" xmlns:xlink="http://www.w3.org/1999/xlink" x="0px" y="0px"
	 width="1092.7px" height="311px" viewBox="673.3 92 1092.7 311" enable-background="new 673.3 92 1092.7 311" xml:space="preserve"
	>
<g>
	<path fill="#333333" d="M985.3,237.7L955,285.2h-6.3l-30.3-47.5v69.4h-17.3V202.7h12.8l37.9,57.5l37.8-57.5h12.8v104.5h-17.2V237.7
		z"/>
	<path fill="#333333" d="M1080.9,307.1c-1.3,0.6-3.9,0.7-6,0.7c-7,0-11.8-3.1-14.2-8.2c-5.7,5.7-13.3,8.8-21,8.8
		c-14,0-21.6-10.1-21.6-20.9c0-16,16.7-24.6,34.8-24.6c3.4,0,5.1,0.3,6.1,0.4v-6c0-6.1-4.8-12.1-13.3-12.1c-5.5,0-12.1,2.5-15.4,5.8
		l-9-9c6.4-6.3,15.4-10.3,26-10.3c17.6,0,28.2,11,28.2,25.5v33.1c0,3.4,2.2,5.7,5.4,5.7V307.1z M1059,288.9v-14.5
		c-1.2-0.3-2.7-0.4-4.6-0.4c-10.6,0-19.6,4.5-19.6,11.8c0,4,2.8,9.3,10.3,9.3C1049.4,295,1055.3,293.1,1059,288.9z"/>
	<path fill="#333333" d="M1088.4,233.3h8.8v-16.4h17.3v16.4h17.3v13h-17.3v36c0,7.3,4.5,12.2,11.3,12.2c2.1,0,4.2-0.4,6-1.3v13.7
		c-2.8,1.3-6,1.6-9,1.6c-15.8,0-25.7-10.3-25.7-26.3v-36h-8.8V233.3z"/>
	<path fill="#333333" d="M1184.9,232.5V247c-1.9-0.6-4-0.7-6-0.7c-7.3,0-13.4,3.9-17.2,9.6v51.3H1145v-73.9h16.7v7.9
		c5.1-5.5,11.5-9,18.4-9C1181.7,232.2,1183.2,232.4,1184.9,232.5z"/>
	<path fill="#333333" d="M1211,275c1.6,11.3,9.6,18.7,22.2,18.7c7.3,0,13.1-2.2,17-6.4l9.9,10.1c-6.7,7-16.3,11-28.1,11
		c-23.1,0-38.8-15.4-38.8-38.8c0-22.2,14.3-37.8,36-37.8c22.1,0,34.3,16.3,34.3,43.1H1211z M1211,263.6h36
		c-1.5-10.4-7.2-17.3-17.3-17.3C1219.5,246.2,1212.7,253.1,1211,263.6z"/>
	<path fill="#333333" d="M1311.8,251.5c-2.8-3-7.9-5.7-12.4-5.7c-6,0-8.4,4.6-8.4,7.9c0,13,32.4,9,32.4,31.6
		c0,12.1-9,23.1-25.8,23.1c-9.9,0-19.3-3.9-25.5-10.6l10.1-10.3c3.4,4.2,9,7.2,14.3,7.2c7.3,0,10.3-5.4,10.3-9.3
		c0-12.4-32.4-7.9-32.4-31.5c0-11.5,7.8-22.1,23.6-22.1c9.1,0,17.9,3.3,24,9.4L1311.8,251.5z"/>
	<path fill="#333333" d="M1354.1,195.2v43.6c5.5-4.5,12.5-6.9,20.3-6.9c17,0,27.6,12.5,27.6,31v44.2h-16.6V263
		c0-9.6-6-16.3-15.2-16.3c-6.9,0-12.2,2.2-16.1,6.1v54.3h-16.7V195.2H1354.1z"/>
	<path fill="#333333" d="M1419.7,307.1V195.2h16.7v69l25.2-30.9h19.9l-28.8,34.5l31.9,39.4h-19.6l-28.7-35.7v35.7H1419.7z"/>
	<path fill="#333333" d="M1553.2,307.1c-1.3,0.6-3.9,0.7-6,0.7c-7,0-11.8-3.1-14.2-8.2c-5.7,5.7-13.3,8.8-21,8.8
		c-14,0-21.6-10.1-21.6-20.9c0-16,16.7-24.6,34.8-24.6c3.4,0,5.1,0.3,6.1,0.4v-6c0-6.1-4.8-12.1-13.3-12.1c-5.5,0-12.1,2.5-15.4,5.8
		l-9-9c6.4-6.3,15.4-10.3,26-10.3c17.6,0,28.2,11,28.2,25.5v33.1c0,3.4,2.2,5.7,5.4,5.7V307.1z M1531.3,288.9v-14.5
		c-1.2-0.3-2.7-0.4-4.6-0.4c-10.6,0-19.6,4.5-19.6,11.8c0,4,2.8,9.3,10.3,9.3C1521.8,295,1527.6,293.1,1531.3,288.9z"/>
	<path fill="#333333" d="M1577.5,288.6c5.5,0,10,4.3,10,10c0,5.5-4.5,9.9-10,9.9c-5.5,0-9.9-4.3-9.9-9.9
		C1567.6,293,1572,288.6,1577.5,288.6z"/>
	<path fill="#333333" d="M1596,333.6c4.8,0,7.9-2.8,7.9-7.9v-92.4h16.7v92.8c0,11.5-6.4,19.1-18.1,19.1c-2.2,0-5.1-0.1-6.6-0.7
		V333.6z M1612.3,201c5.7,0,10.3,4.5,10.3,10c0,5.7-4.6,10.3-10.3,10.3c-5.7,0-10-4.6-10-10.3C1602.3,205.5,1606.6,201,1612.3,201z"
		/>
	<path fill="#333333" d="M1673.2,251.5c-2.8-3-7.9-5.7-12.4-5.7c-6,0-8.4,4.6-8.4,7.9c0,13,32.4,9,32.4,31.6
		c0,12.1-9,23.1-25.8,23.1c-9.9,0-19.3-3.9-25.5-10.6l10.1-10.3c3.4,4.2,9,7.2,14.3,7.2c7.3,0,10.3-5.4,10.3-9.3
		c0-12.4-32.4-7.9-32.4-31.5c0-11.5,7.8-22.1,23.6-22.1c9.1,0,17.9,3.3,24,9.4L1673.2,251.5z"/>
</g>
<g>
	<path fill="#333333" d="M833.9,251.2c-2.2-10.4-6.8-16.1-5.8-29.1c1.4-17.9-0.8-22.3-2.1-25.2c-1.3-2.9-3.1-5.4-5.5-7.6
		c-2.4-2.2-5.3-3.9-8.6-5.1c-3.4-1.2-6.8-1.9-11-1.9v0v0c-4.2,0-7.6,0.6-11,1.9c-3.4,1.2-6.3,2.9-8.6,5.1c-2.4,2.2-4.2,4.7-5.5,7.6
		c-1.3,2.9-3.5,7.3-2.1,25.2c1,13-3.7,18.7-5.8,29.1c-4.4,21,1,51.5,5.7,54.1c3.3,2.5,7.3,4.3,11.9,5.6c4.6,1.3,10,2,15.4,2v0v0
		c5.4,0,10.8-0.7,15.4-2c4.6-1.3,8.6-3.2,11.9-5.6C832.9,302.7,838.3,272.2,833.9,251.2z"/>
	<linearGradient id="SVGID_1_" gradientUnits="userSpaceOnUse" x1="802.3176" y1="314.6713" x2="856.2695" y2="314.6713">
		<stop  offset="0" style="stop-color:#FFEB3B"/>
		<stop  offset="1" style="stop-color:#66BB6A"/>
	</linearGradient>
	<path fill="url(#SVGID_1_)" d="M836,291.6c-17.4,3.4-37.5,10.9-41.3,28.2c-3,13.3,1.1,25.2,13.8,27.7c5.6-0.4,11.1-1.3,16-2.7
		c7.1-2,13.2-4.9,18.3-8.7c5.2-2.8,10.9-27.8,11.2-53.6c0-0.7-0.8-0.9-1.2-0.4C848.7,287,842.4,290.4,836,291.6z"/>
	<linearGradient id="SVGID_2_" gradientUnits="userSpaceOnUse" x1="758.7505" y1="169.1619" x2="841.7424" y2="169.1619">
		<stop  offset="0" style="stop-color:#FFEB3B"/>
		<stop  offset="1" style="stop-color:#66BB6A"/>
	</linearGradient>
	<path fill="url(#SVGID_2_)" d="M758.8,183.9c5.6,16,33.1,0,51.5-5.3c9.2-2.7,20.5-4.8,28.3-1.6c0.4,0.2,0.7,0.3,1.1,0.6
		c1.1,0.6,2.4-0.3,2.1-1.5c-0.7-2.9-1.6-4.7-2.3-6.2c-2-4.4-4.8-8.3-8.4-11.6c-3.6-3.3-8.1-5.9-13.2-7.8c-5.2-1.9-10.5-2.9-16.9-2.9
		v0l0,0c-6.4,0-11.7,1-16.9,2.9c-5.2,1.9-9.6,4.5-13.2,7.8c-3.6,3.3-6.4,7.2-8.4,11.6C761.1,172.4,759.5,175.9,758.8,183.9
		L758.8,183.9z"/>
	<linearGradient id="SVGID_3_" gradientUnits="userSpaceOnUse" x1="782.3912" y1="235.3557" x2="854.6705" y2="235.3557">
		<stop  offset="0" style="stop-color:#FFEB3B"/>
		<stop  offset="1" style="stop-color:#66BB6A"/>
	</linearGradient>
	<path fill="url(#SVGID_3_)" d="M812.9,263.6c9.6-1.8,18.8-7.7,28.5-7.6c3.6,0,6.7,0.4,9.2,1.5c0.8,0.3,1.7-0.4,1.6-1.3
		c-0.2-1-0.4-2-0.6-3c-3.3-15.9-10.5-24.6-8.9-44.6c0-0.6,0.1-1.2,0.1-1.8c0.1-0.8-0.9-1.2-1.4-0.6c-2.5,2.9-6,5.4-10.8,7
		c-15.6,5.2-32.8,6.1-45.1,15.9C769.7,241.5,771.3,271.5,812.9,263.6z"/>
	<linearGradient id="SVGID_4_" gradientUnits="userSpaceOnUse" x1="747.6756" y1="252.567" x2="799.9613" y2="252.567">
		<stop  offset="0" style="stop-color:#00BCD4"/>
		<stop  offset="1" style="stop-color:#9C27B0"/>
	</linearGradient>
	<path fill="url(#SVGID_4_)" d="M792.2,275.1c-18.2,0-26.4-5.2-31.8-14.2c-3.4-5.7-2.2-23.1,11.4-36.8c3.5-3.5,8.1-5.9,11-9.9
		c2.9-4,3.7-10.2,0.1-13.6c-5.7-1.1-11.4,1.2-17,2.7c-2.3,0.6-4.3,0.8-5.9,0.3c-0.7-0.2-1.4,0.3-1.3,1c0.1,1.2,0.2,2.5,0.3,3.8
		c1.6,20-5.6,28.7-8.9,44.6c-2.7,13.2-3,28.8-1.8,42.9c0.2,2.1,1.4,4.1,3.3,5.1c6.7,3.9,15.2,4.9,21.9,1.2c6-3.3,9.6-10.2,15.8-13
		C804,282.6,802,275.1,792.2,275.1z"/>
	<linearGradient id="SVGID_5_" gradientUnits="userSpaceOnUse" x1="799.4767" y1="195.9267" x2="829.6412" y2="195.9267">
		<stop  offset="0" style="stop-color:#9C27B0"/>
		<stop  offset="1" style="stop-color:#FFEB3B"/>
	</linearGradient>
	<path fill="url(#SVGID_5_)" d="M800.9,201.1c-1.7-1-1.8-3-0.8-4.4c1-1.4,2.9-2.4,4.7-3.2c7.1-3,15.5-4.2,23.6-3.4
		c1.5,1.3,1.5,3.3,0.5,4.8c-1,1.5-2.9,2.6-4.9,3.5c-5.7,2.6-12.5,3.9-19.2,3.6C803.4,201.9,801.9,201.7,800.9,201.1z"/>
	<linearGradient id="SVGID_6_" gradientUnits="userSpaceOnUse" x1="814.9417" y1="272.0396" x2="853.9055" y2="272.0396">
		<stop  offset="0" style="stop-color:#9C27B0"/>
		<stop  offset="1" style="stop-color:#FFEB3B"/>
	</linearGradient>
	<path fill="url(#SVGID_6_)" d="M853.2,264.2c-0.1-0.7-0.7-1.3-1.4-1.3c-0.4,0-0.8,0-1.2,0c-10.6-0.1-21.1,2.8-30.2,8.3
		c-2.8,1.7-5.8,4.2-5.5,7.6c0.1,0.7,0.3,1.4,0.9,1.9c1.3,1.2,3.1,0.4,4.6-0.2c2.6-1,5.3-1.3,8.1-1.5c5.3-0.5,10.6-1,15.9-1.5
		c2.9-0.3,5.8-0.6,8.3-1.9c0,0,0,0,0,0c0.8-0.4,1.2-1.2,1.2-2.1C853.8,270.3,853.6,267.2,853.2,264.2z"/>
	<linearGradient id="SVGID_7_" gradientUnits="userSpaceOnUse" x1="752.2965" y1="330.5418" x2="781.1673" y2="330.5418">
		<stop  offset="0" style="stop-color:#9C27B0"/>
		<stop  offset="0.9949" style="stop-color:#EF5350"/>
	</linearGradient>
	<path fill="url(#SVGID_7_)" d="M778.5,344.8c1.4,0.4,2.8-0.7,2.6-2.2c-0.1-1-0.3-2-0.5-2.9c-0.7-3.3-2-6.6-2.7-9.9
		c-0.6-3.1-0.8-6.2-0.7-9.3c0.1-2.8-2.8-5-5.6-4.1c-3,1-6.6,1.3-9.8,1.6c-2.6,0.3-5.2,0.7-7.8,1.2c-1.2,0.3-2,1.4-1.7,2.6
		c2.1,7.7,4.5,13.1,6.9,14.3C764.6,339.9,771,342.8,778.5,344.8C778.5,344.8,778.5,344.8,778.5,344.8z"/>
</g>
</svg>
